<svg width="34" height="31" viewBox="0 0 34 31" fill="none" xmlns="http://www.w3.org/2000/svg">
<g clip-path="url(#clip0_2_470)">
<path fill-rule="evenodd" clip-rule="evenodd" d="M8.42957 6.21424L11.5266 21.7802L28.3366 20.7912L31.7276 6.03424H20.0506L8.42957 6.21424ZM11.0356 23.0172C10.7506 23.0172 10.5006 22.8152 10.4446 22.5312L7.13857 5.91124L4.56957 3.20724H0.603573C0.270573 3.20724 -0.000427246 2.93724 -0.000427246 2.60424C-0.000427246 2.27024 0.270573 2.00024 0.603573 2.00024H4.82857C4.99457 2.00024 5.15257 2.06824 5.26657 2.18824L7.95157 5.01424L20.0416 4.82724H32.4856C32.6696 4.82724 32.8436 4.91124 32.9576 5.05524C33.0726 5.19924 33.1156 5.38724 33.0736 5.56624L29.4116 21.5022C29.3516 21.7632 29.1266 21.9542 28.8596 21.9692L11.0726 23.0162C11.0606 23.0172 11.0486 23.0172 11.0356 23.0172Z" fill="#231F20"/>
<path fill-rule="evenodd" clip-rule="evenodd" d="M29.4276 25.4718H11.1166C10.7836 25.4718 10.5126 25.2008 10.5126 24.8678V22.4128C10.5126 22.0798 10.7836 21.8098 11.1166 21.8098C11.4496 21.8098 11.7206 22.0798 11.7206 22.4128V24.2638H29.4276C29.7606 24.2638 30.0316 24.5348 30.0316 24.8678C30.0316 25.2008 29.7606 25.4718 29.4276 25.4718Z" fill="#231F20"/>
<path fill-rule="evenodd" clip-rule="evenodd" d="M14.4169 28.2786C14.4169 29.5786 13.3629 30.6326 12.0629 30.6326C10.7629 30.6326 9.70886 29.5786 9.70886 28.2786C9.70886 26.9786 10.7629 25.9246 12.0629 25.9246C13.3629 25.9246 14.4169 26.9786 14.4169 28.2786Z" fill="#231F20"/>
<path fill-rule="evenodd" clip-rule="evenodd" d="M30.2723 28.2786C30.2723 29.5786 29.2183 30.6326 27.9183 30.6326C26.6183 30.6326 25.5643 29.5786 25.5643 28.2786C25.5643 26.9786 26.6183 25.9246 27.9183 25.9246C29.2183 25.9246 30.2723 26.9786 30.2723 28.2786Z" fill="#231F20"/>
</g>
<defs>
<clipPath id="clip0_2_470">
<rect width="34" height="31" fill="white"/>
</clipPath>
</defs>
</svg>
