<svg width="37" height="22" viewBox="0 0 37 22" fill="none" xmlns="http://www.w3.org/2000/svg">
<g clip-path="url(#clip0_2_73)">
<path d="M0 0V1V12V13V21V21.7V22H37V21.7V21V1V0.1V0H0V0ZM36 21H1V15.3V13V12V11.5V10.2V8.2V7.2V5.2V4.3V3V1.8V1H2.5H4.3H7.4H8.4H10.4H11.3H14.5H16.4H18H19H19.9H36V21Z" fill="#CCCCCC"/>
<path d="M17.8 4.8001L18.5 4.3001L19.2 4.8001L18.9 3.9001L19.7 3.4001H18.8L18.5 2.6001L18.2 3.4001H17.3L18.1 3.9001L17.8 4.8001Z" fill="#CCCCCC"/>
<path d="M14.1 5.8001L14.8 5.2001L15.6 5.8001L15.3 4.9001L16 4.4001H15.1L14.8 3.6001L14.6 4.4001H13.7L14.4 4.9001L14.1 5.8001Z" fill="#CCCCCC"/>
<path d="M12.2 6.2002L11.9 7.1002H11L11.7 7.6002L11.5 8.4002L12.2 7.9002L12.9 8.4002L12.6 7.6002L13.3 7.1002H12.4L12.2 6.2002Z" fill="#CCCCCC"/>
<path d="M11.2 11.6001L11.9 12.1001L11.6 11.3001L12.3 10.7001H11.5L11.2 9.90015L10.9 10.7001H10L10.7 11.3001L10.5 12.1001L11.2 11.6001Z" fill="#CCCCCC"/>
<path d="M12.4 14.4001L12.2 13.6001L11.9 14.4001H11L11.7 14.9001L11.5 15.8001L12.2 15.2001L12.9 15.8001L12.6 14.9001L13.3 14.4001H12.4Z" fill="#CCCCCC"/>
<path d="M15.1 17.1L14.8 16.3L14.6 17.1H13.7L14.4 17.6L14.1 18.4L14.8 17.9L15.6 18.4L15.3 17.6L16 17.1H15.1Z" fill="#CCCCCC"/>
<path d="M18.8 18.1002L18.5 17.2002L18.2 18.1002H17.3L18.1 18.6002L17.8 19.4002L18.5 18.9002L19.2 19.4002L18.9 18.6002L19.7 18.1002H18.8Z" fill="#CCCCCC"/>
<path d="M22.4 17.1L22.2 16.3L21.9 17.1H21L21.7 17.6L21.5 18.4L22.2 17.9L22.9 18.4L22.6 17.6L23.3 17.1H22.4Z" fill="#CCCCCC"/>
<path d="M25.1 14.4001L24.8 13.6001L24.6 14.4001H23.7L24.4 14.9001L24.1 15.8001L24.8 15.2001L25.6 15.8001L25.3 14.9001L26 14.4001H25.1Z" fill="#CCCCCC"/>
<path d="M27 10.7001H26.1L25.8 9.90015L25.5 10.7001H24.7L25.4 11.3001L25.1 12.1001L25.8 11.6001L26.5 12.1001L26.3 11.3001L27 10.7001Z" fill="#CCCCCC"/>
<path d="M24.1 8.4002L24.8 7.9002L25.6 8.4002L25.3 7.6002L26 7.1002H25.1L24.8 6.2002L24.6 7.1002H23.7L24.4 7.6002L24.1 8.4002Z" fill="#CCCCCC"/>
<path d="M22.2 3.6001L21.9 4.4001H21L21.7 4.9001L21.5 5.8001L22.2 5.2001L22.9 5.8001L22.6 4.9001L23.3 4.4001H22.4L22.2 3.6001Z" fill="#CCCCCC"/>
</g>
<defs>
<clipPath id="clip0_2_73">
<rect width="37" height="22" fill="white"/>
</clipPath>
</defs>
</svg>
