<svg width="37" height="22" viewBox="0 0 37 22" fill="none" xmlns="http://www.w3.org/2000/svg">
<g clip-path="url(#clip0_2_33)">
<path d="M0 0H37V1H0V0ZM0 21H37V22H0V21Z" fill="white"/>
<path d="M0 0H1V22H0V0ZM36 0H37V22H36V0Z" fill="white"/>
<path d="M18 0H19V13H18V0Z" fill="white"/>
<path d="M0 12H19V13H0V12Z" fill="white"/>
<path d="M7.40001 0.199951V4.39995H0.100006V5.19995H8.20001V0.199951C8.20001 0.199951 7.40001 0.199951 7.40001 0.199951Z" fill="white"/>
<path d="M8.3 5.2H0V4.2H7.3V0H8.4V5.2H8.3ZM0.2 5H8.1V0.3H7.5V4.5H0.2V5Z" fill="white"/>
<path d="M10.3 0.199951V5.19995H18.8V4.29995H11.2V0.199951H10.3Z" fill="white"/>
<path d="M18.9 5.2H10.2V0H11.3V4.2H18.9V5.2ZM10.5 5H18.7V4.4H11V0.3H10.4V5H10.5Z" fill="white"/>
<path d="M0.300003 7.30005V8.10005H7.4V12.7H8.2V7.30005H0.300003Z" fill="white"/>
<path d="M8.3 12.9H7.3V8.29995H0.199997V7.19995H8.4L8.3 12.9ZM7.6 12.6H8.1V7.49995H0.399997V7.99995H7.5L7.6 12.6Z" fill="white"/>
<path d="M10.3 7.30005V12.7H11.1V8.10005H18.6V7.30005H10.3Z" fill="white"/>
<path d="M11.2 12.9H10.2V7.19995H18.8V8.29995H11.3L11.2 12.9ZM10.5 12.6H11V7.99995H18.5V7.49995H10.4V12.6H10.5Z" fill="white"/>
<path d="M0.600006 1.3999L0.100006 2.0999L4.20001 4.9999L4.70001 4.2999L0.600006 1.3999Z" fill="white"/>
<path d="M4.2 5.20005L-0.0999985 2.20005L0.500002 1.30005L0.600002 1.40005L4.8 4.30005L4.2 5.20005ZM0.300002 2.10005L4.2 4.80005L4.5 4.30005L0.600002 1.60005L0.300002 2.10005Z" fill="white"/>
<path d="M3.2 0.199951L2.7 0.799951L7.3 4.29995L7.8 3.59995L3.2 0.199951Z" fill="white"/>
<path d="M7.40001 4.5L2.60001 0.8L3.20001 0L8.00001 3.7L7.40001 4.5ZM2.90001 0.8L7.30001 4.2L7.60001 3.7L3.20001 0.3L2.90001 0.8Z" fill="white"/>
<path d="M18.2 1.30005L14 4.30005L14.4 5.00005L18.6 2.00005L18.2 1.30005Z" fill="white"/>
<path d="M14.4 5.2001L13.8 4.3001L13.9 4.2001L18.2 1.1001L18.8 2.0001L14.4 5.2001ZM14.1 4.3001L14.4 4.8001L18.4 2.0001L18.1 1.5001L14.1 4.3001Z" fill="white"/>
<path d="M15.7 0.100098L10.7 3.8001L11.2 4.5001L16.2 0.800098L15.7 0.100098Z" fill="white"/>
<path d="M11.1 4.5999L10.5 3.6999L15.7 -0.100098L16.3 0.799902L11.1 4.5999ZM10.8 3.7999L11.1 4.2999L16 0.699902L15.7 0.199902L10.8 3.7999Z" fill="white"/>
<path d="M4.10001 7.3999L0.100006 10.1999L0.600006 10.8999L4.60001 8.0999L4.10001 7.3999Z" fill="white"/>
<path d="M0.6 11.1L0 10.2L4.2 7.19995L4.8 8.09995L4.6 8.19995L0.6 11.1ZM0.3 10.3L0.6 10.8L4.4 8.09995L4 7.59995L0.3 10.3Z" fill="white"/>
<path d="M7.4 8L2 12L2.5 12.7L7.9 8.7L7.4 8Z" fill="white"/>
<path d="M2.4 12.9L1.8 12L7.4 7.80005L8 8.70005L7.9 8.80005L2.4 12.9ZM2.1 12.1L2.4 12.6L7.6 8.70005L7.3 8.20005L2.1 12.1Z" fill="white"/>
<path d="M14.2 7.3999L13.7 8.0999L18.3 11.2999L18.8 10.5999L14.2 7.3999Z" fill="white"/>
<path d="M18.3 11.5L18.2 11.4L13.5 8.09995L14.1 7.19995L14.2 7.29995L18.9 10.6L18.3 11.5ZM13.9 7.99995L18.3 11.1L18.6 10.6L14.2 7.49995L13.9 7.99995Z" fill="white"/>
<path d="M11.1 8L10.6 8.7L15.8 12.7L16.3 12L11.1 8Z" fill="white"/>
<path d="M15.9 12.8L10.5 8.70005L11.2 7.80005L11.3 7.90005L16.6 12L15.9 12.8ZM10.8 8.60005L15.8 12.4L16.1 11.9L11.1 8.10005L10.8 8.60005Z" fill="white"/>
<path d="M10.7 20.0999L9.3 18.6999L7.8 20.0999L8 18.0999L6 17.7999L7.7 16.7999L6.7 15.0999L8.6 15.7999L9.3 13.8999L9.9 15.7999L11.8 15.1999L10.7 16.8999L12.4 17.9999L10.4 18.1999L10.7 20.0999Z" fill="white"/>
<path d="M24 11.1L23.3 10.4L22.6 11.1L22.7 10.1L21.7 10L22.5 9.5L22 8.7L23 8.9L23.4 8L23.7 8.9L24.6 8.6L24.1 9.4L24.9 9.9L23.9 10L24 11.1Z" fill="white"/>
<path d="M29.5 5.0001L28.9 4.4001L28.2 5.0001L28.3 4.1001L27.4 4.0001L28.2 3.5001L27.7 2.7001L28.5 3.0001L28.8 2.1001L29.1 3.0001L30 2.7001L29.5 3.5001L30.3 4.0001L29.4 4.1001L29.5 5.0001Z" fill="white"/>
<path d="M29.5 19.7L28.9 19L28.2 19.7L28.3 18.7L27.3 18.6L28.1 18.1L27.6 17.2999L28.5 17.6L28.8 16.7L29.1 17.6L30 17.2999L29.5 18.1L30.3 18.6L29.3 18.7L29.5 19.7Z" fill="white"/>
<path d="M31.6 12.7L31 12.3L30.4 12.7L30.6 12.1L30 11.7H30.7L31 11L31.2 11.6H32L31.4 12L31.6 12.7Z" fill="white"/>
<path d="M34.4 9.5001L33.8 8.9001L33.1 9.5001L33.2 8.6001L32.3 8.5001L33 8.0001L32.5 7.2001L33.4 7.5001L33.7 6.6001L34 7.5001L34.9 7.2001L34.4 8.0001L35.2 8.5001L34.3 8.6001L34.4 9.5001Z" fill="white"/>
</g>
<defs>
<clipPath id="clip0_2_33">
<rect width="37" height="22" fill="white"/>
</clipPath>
</defs>
</svg>
