<svg width="37" height="22" viewBox="0 0 37 22" fill="none" xmlns="http://www.w3.org/2000/svg">
<g clip-path="url(#clip0_2_129)">
<path d="M37 0H27.1V22H37V0Z" fill="white"/>
<path d="M9.9 0H0V22H9.9V0Z" fill="white"/>
<path fill-rule="evenodd" clip-rule="evenodd" d="M18.8 19.1C18.7 17.7 18.7 16.8 18.6 15.9C18.6 15.5 18.9 15.6 19.2 15.6C21.2 15.9 22.2 16.1 22.2 16.1C21.2 14.1 23.8 13.2 25.1 12C24.1 11.6 24.2 11.8 24.9 9.29995C22.7 9.99995 22.9 9.79995 22.4 8.69995C22.4 8.69995 22.2 8.89995 20.9 10.4C20.7 10.6 20.4 10.5 20.4 10.1C21.1 6.59995 21.1 6.39995 21.1 6.39995C19.7 7.19995 19.8 7.29995 19.5 6.89995C18.7 5.39995 18.4 4.69995 18.4 4.69995C18.4 4.69995 18 5.39995 17.3 6.89995C17.1 7.29995 17.1 7.29995 15.7 6.39995C15.7 6.39995 15.7 6.49995 16.4 10.1C16.5 10.4 16.1 10.6 15.9 10.4C14.5 8.89995 14.4 8.69995 14.4 8.69995C13.9 9.79995 14.1 9.99995 11.9 9.29995C12.6 11.8 12.7 11.7 11.7 12C13.1 13.1 15.7 14.1 14.6 16.1C14.6 16.1 15.6 16 17.6 15.6C17.8 15.6 18.2 15.5 18.2 15.9C18.2 16.8 18.1 17.7 18 19.1H18.8Z" fill="white"/>
<path d="M0 0H37V1H0V0ZM0 21H37V22H0V21Z" fill="white"/>
</g>
<defs>
<clipPath id="clip0_2_129">
<rect width="37" height="22" fill="white"/>
</clipPath>
</defs>
</svg>
