<svg width="37" height="22" viewBox="0 0 37 22" fill="none" xmlns="http://www.w3.org/2000/svg">
<g clip-path="url(#clip0_2_92)">
<path d="M27.48 3.15L28.05 5H30L28.46 6.16L29 8L27.48 6.83L26 7.93L26.56 6.16L25 5H26.89L27.48 3.15ZM27.48 14.15L28.05 16H30L28.47 17.14L29 19L27.46 17.86L26 18.94L26.56 17.17L25 16H26.89L27.48 14.15ZM23.48 7.15L24.05 9H26L24.47 10.14L25 12L23.47 10.86L22 12L22.57 10.23L21 9H22.89L23.48 7.15ZM31.48 7.15L32.05 9H34L32.46 10.14L33 12L31.46 10.86L30 12L30.56 10.23L29 9H30.89L31.48 7.15ZM0 0H37V1H0V0ZM0 21H37V22H0V21Z" fill="white"/>
<path d="M0 0H1V22H0V0ZM36 0H37V22H36V0Z" fill="white"/>
<path d="M0 12H19V13H0V12Z" fill="white"/>
<path d="M18.05 0.0500488H19.05V13.05H18.05V0.0500488Z" fill="white"/>
<path d="M0.0500031 12.05H19.05V13.05H0.0500031V12.05Z" fill="white"/>
<path d="M7.45 0.25V4.45H0.150002V5.25H8.25V0.25H7.45Z" fill="white"/>
<path d="M8.35 5.25005H0.0500031V4.25005H7.35V0.0500488H8.45V5.25005H8.35ZM0.250003 5.05005H8.15V0.350049H7.55V4.55005H0.250003V5.05005Z" fill="white"/>
<path d="M10.35 0.25V5.25H18.85V4.35H11.25V0.25H10.35Z" fill="white"/>
<path d="M19 5.25005H10.3V0.0500488H11.4V4.25005H19V5.25005ZM10.6 5.05005H18.8V4.45005H11.1V0.350049H10.5V5.05005H10.6Z" fill="white"/>
<path d="M0.349998 7.3501V8.1501H7.45V12.7501H8.25V7.3501H0.349998Z" fill="white"/>
<path d="M8.35 13H7.35V8.35H0.25V7.25H8.45L8.35 13ZM7.65 12.7H8.15V7.55H0.45V8.05H7.55L7.65 12.65V12.7Z" fill="white"/>
<path d="M10.35 7.3501V12.7501H11.15V8.1501H18.65V7.3501H10.35Z" fill="white"/>
<path d="M11.25 13H10.25V7.25H18.85V8.35H11.35L11.25 12.95V13ZM10.55 12.7H11.05V8.05H18.55V7.55H10.45V12.65L10.55 12.7Z" fill="white"/>
<path d="M0.650001 1.44995L0.150002 2.14995L4.25 5.04995L4.75 4.34995L0.650001 1.44995Z" fill="white"/>
<path d="M4.25 5.2501L0 2.2501L0.6 1.3501L0.7 1.4501L4.9 4.3501L4.25 5.2501ZM0.35 2.1501L4.25 4.8501L4.55 4.3501L0.65 1.6501L0.35 2.1501Z" fill="white"/>
<path d="M3.25 0.25L2.75 0.85L7.35 4.35L7.85 3.65L3.25 0.25Z" fill="white"/>
<path d="M7.45 4.55005L2.65 0.850049L3.25 0.0500488L8.05 3.75005L7.45 4.55005ZM3 0.850049L7.4 4.25005L7.7 3.75005L3.25 0.350049L3 0.850049Z" fill="white"/>
<path d="M18.25 1.3501L14.05 4.3501L14.45 5.0501L18.65 2.0501L18.25 1.3501Z" fill="white"/>
<path d="M14.45 5.2499L13.85 4.3499L13.95 4.2499L18.25 1.1499L18.85 2.0499L14.45 5.2499ZM14.15 4.3499L14.45 4.8499L18.45 2.0499L18.15 1.5499L14.15 4.3499Z" fill="white"/>
<path d="M15.75 0.149902L10.75 3.8499L11.25 4.5499L16.25 0.849902L15.75 0.149902Z" fill="white"/>
<path d="M11.15 4.65L10.55 3.75L15.75 0L16.35 0.9L11.15 4.65ZM10.85 3.85L11.15 4.35L16.05 0.75L15.75 0.25L10.85 3.85Z" fill="white"/>
<path d="M4.15 7.44995L0.150002 10.25L0.650001 10.95L4.65 8.14995L4.15 7.44995Z" fill="white"/>
<path d="M0.650003 11.15L0.0500031 10.25L4.25 7.25L4.85 8.15L4.65 8.25L0.650003 11.15ZM0.350003 10.35L0.650003 10.85L4.45 8.15L4.05 7.65L0.350003 10.35Z" fill="white"/>
<path d="M7.45 8.05005L2.05 12.05L2.55 12.75L7.95 8.75005L7.45 8.05005Z" fill="white"/>
<path d="M2.45 12.9999L1.85 12.0999L7.45 7.8999L8.05 8.7999L7.95 8.8999L2.45 12.9999ZM2.15 12.1999L2.45 12.6999L7.65 8.7999L7.35 8.2999L2.15 12.1999Z" fill="white"/>
<path d="M14.25 7.44995L13.75 8.14995L18.35 11.35L18.85 10.65L14.25 7.44995Z" fill="white"/>
<path d="M18.35 11.55L18.25 11.45L13.55 8.15L14.15 7.25L14.25 7.35L18.95 10.65L18.35 11.55ZM14 8.05L18.4 11.15L18.7 10.65L14.3 7.55L14 8.05Z" fill="white"/>
<path d="M11.15 8.05005L10.65 8.75005L15.85 12.75L16.35 12.05L11.15 8.05005Z" fill="white"/>
<path d="M16 12.8501L10.6 8.7501L11.3 7.8501L11.4 7.9501L16.7 12.0501L16 12.8501ZM10.9 8.6501L15.9 12.4501L16.2 11.9501L11.2 8.1501L10.9 8.6501Z" fill="white"/>
</g>
<defs>
<clipPath id="clip0_2_92">
<rect width="37" height="22" fill="white"/>
</clipPath>
</defs>
</svg>
