<svg width="37" height="22" viewBox="0 0 37 22" fill="none" xmlns="http://www.w3.org/2000/svg">
<g clip-path="url(#clip0_2_122)">
<path d="M7.50001 7.6L9.70001 6H7.00001L6.20001 3.5L5.30001 6H2.60001L4.80001 7.6L4.00001 10.2L6.20001 8.6L8.30001 10.2L7.50001 7.6Z" fill="white"/>
<path d="M12.7 3.80005L13.6 3.60005L12.7 3.20005L12.8 2.30005L12.2 3.00005L11.4 2.70005L11.9 3.40005L11.3 4.10005L12.1 3.90005L12.6 4.70005L12.7 3.80005Z" fill="white"/>
<path d="M15 6.40005L15.9 6.50005L15.3 5.90005L15.7 5.10005L14.9 5.50005L14.3 4.80005L14.4 5.70005L13.6 6.10005L14.5 6.30005L14.6 7.10005L15 6.40005Z" fill="white"/>
<path d="M15.3 9.7999L16 9.1999H15.1L14.8 8.3999L14.5 9.2999H13.6L14.4 9.7999L14.1 10.6999L14.8 10.0999L15.6 10.5999L15.3 9.7999Z" fill="white"/>
<path d="M12.7 12.3999L13.6 12.1999L12.7 11.7999L12.8 10.8999L12.2 11.5999L11.4 11.2999L11.9 12.0999L11.3 12.7999L12.2 12.4999L12.7 13.2999V12.3999Z" fill="white"/>
<path d="M0 0V1V12V13V21V21.7V22H37V21.7V21V1V0.1V0H0ZM36 21H1V15.3V13V12V11.5V10.2V8.2V7.2V5.2V4.3V3V1.8V1H2.5H4.3H7.4H8.4H10.4H11.3H14.5H16.4H18H19H19.9H36V21Z" fill="white"/>
</g>
<defs>
<clipPath id="clip0_2_122">
<rect width="37" height="22" fill="white"/>
</clipPath>
</defs>
</svg>
