<svg width="18" height="17" viewBox="0 0 18 17" fill="none" xmlns="http://www.w3.org/2000/svg">
<g clip-path="url(#clip0_2_23)">
<path d="M9.00029 1.53425C11.4026 1.53425 11.6872 1.54292 12.636 1.5838C13.5132 1.62161 13.9896 1.76001 14.3066 1.87638C14.6974 2.0126 15.0509 2.2298 15.3411 2.51202C15.64 2.78611 15.87 3.11997 16.0142 3.48905C16.1374 3.78847 16.284 4.2384 16.324 5.06688C16.3673 5.96292 16.3764 6.23165 16.3764 8.50061C16.3764 10.7696 16.3673 11.0382 16.324 11.9343C16.2839 12.7628 16.1374 13.2127 16.0142 13.5122C15.7115 14.2532 15.0913 14.839 14.3066 15.1248C13.9896 15.2412 13.5132 15.3796 12.636 15.4174C11.6874 15.4583 11.4029 15.467 9.00029 15.467C6.59768 15.467 6.31326 15.4583 5.36458 15.4174C4.48736 15.3796 4.01101 15.2412 3.69393 15.1248C3.30314 14.9886 2.94965 14.7714 2.65943 14.4892C2.36061 14.2151 2.13063 13.8812 1.9864 13.5122C1.86318 13.2127 1.71661 12.7628 1.67661 11.9343C1.63333 11.0383 1.62415 10.7696 1.62415 8.50061C1.62415 6.23165 1.63333 5.96299 1.67661 5.06688C1.71665 4.2384 1.86318 3.78851 1.9864 3.48905C2.13065 3.11995 2.36065 2.78608 2.65951 2.51199C2.94972 2.22977 3.30322 2.01257 3.69401 1.87634C4.01104 1.75998 4.48743 1.62155 5.36465 1.58377C6.3134 1.54289 6.59793 1.53422 9.00036 1.53422L9.00029 1.53425ZM9.00036 0.00317383C6.55686 0.00317383 6.25036 0.0129556 5.29086 0.0543087C4.33318 0.0955944 3.67918 0.239217 3.1069 0.449289C2.50656 0.662653 1.96273 0.997127 1.51333 1.42939C1.05554 1.8538 0.70129 2.36742 0.475291 2.93443C0.253041 3.47495 0.10097 4.09262 0.0574342 4.99709C0.0134699 5.90329 0.00311279 6.19276 0.00311279 8.50051C0.00311279 10.8083 0.0134699 11.0977 0.0574342 12.0039C0.101149 12.9084 0.25322 13.5261 0.475649 14.0666C0.701565 14.6335 1.05571 15.1472 1.5134 15.5716C1.9628 16.0039 2.50663 16.3383 3.10697 16.5517C3.67929 16.7618 4.33329 16.9054 5.29093 16.9467C6.25058 16.988 6.55697 16.9978 9.00043 16.9978C11.4439 16.9978 11.7504 16.988 12.7099 16.9467C13.6676 16.9054 14.3216 16.7618 14.8939 16.5517C16.1024 16.1102 17.0578 15.2079 17.5252 14.0666C17.7476 13.526 17.8997 12.9084 17.9434 12.0039C17.9872 11.0976 17.9976 10.8082 17.9976 8.50051C17.9976 6.19279 17.9872 5.90329 17.9434 4.99709C17.8997 4.09262 17.7476 3.47495 17.5252 2.93446C17.2993 2.36747 16.9452 1.85386 16.4875 1.42942C16.0381 0.997074 15.4942 0.66253 14.8938 0.44912C14.3215 0.239217 13.6675 0.0955944 12.7098 0.0544774C11.7503 0.0129556 11.4438 0.00317383 9.00029 0.00317383H9.00036Z" fill="white"/>
<path d="M9 4.13647C6.44835 4.13647 4.37982 6.09008 4.37982 8.49998C4.37982 10.9099 6.44835 12.8635 9 12.8635C11.5517 12.8635 13.6202 10.9099 13.6202 8.49998C13.6202 6.09008 11.5517 4.13647 9 4.13647ZM9 11.3324C7.34368 11.3324 6.00099 10.0643 6.001 8.49995C6.00101 6.93565 7.34373 5.66755 9.00005 5.66755C10.6564 5.66756 11.9991 6.93568 11.9991 8.49998C11.9991 10.0643 10.6563 11.3324 9 11.3324Z" fill="white"/>
<path d="M13.8027 4.98366C14.399 4.98366 14.8824 4.52714 14.8824 3.964C14.8824 3.40085 14.399 2.94434 13.8027 2.94434C13.2065 2.94434 12.7231 3.40085 12.7231 3.964C12.7231 4.52714 13.2065 4.98366 13.8027 4.98366Z" fill="white"/>
</g>
<defs>
<clipPath id="clip0_2_23">
<rect width="18" height="17" fill="white"/>
</clipPath>
</defs>
</svg>
