<svg width="78" height="120" viewBox="0 0 78 120" fill="none" xmlns="http://www.w3.org/2000/svg">
<g clip-path="url(#clip0_2_135)">
<path d="M10.292 4.08949C10.1147 3.80751 9.89458 3.56011 9.62928 3.34677C9.36398 3.13344 9.06489 2.96751 8.73054 2.84801C8.39568 2.729 8.04593 2.66924 7.68027 2.66924C7.01156 2.66924 6.4437 2.79813 5.97669 3.05492C5.51018 3.3127 5.13161 3.6569 4.84147 4.08949C4.55083 4.52208 4.34018 5.01443 4.20753 5.56603C4.07488 6.11813 4.00881 6.689 4.00881 7.27813C4.00881 7.84208 4.07488 8.39122 4.20753 8.92356C4.34018 9.4569 4.55083 9.9369 4.84147 10.3631C5.13161 10.7892 5.51018 11.131 5.97669 11.3883C6.4437 11.645 7.01156 11.7734 7.68027 11.7734C8.58845 11.7734 9.2984 11.4979 9.80912 10.9463C10.3203 10.3942 10.6323 9.66727 10.7456 8.76455H13.6222C13.5467 9.60406 13.3514 10.3631 13.0359 11.0401C12.7205 11.7171 12.3036 12.2944 11.7869 12.7705C11.2693 13.247 10.6636 13.611 9.96959 13.8618C9.27604 14.1122 8.51293 14.2381 7.68027 14.2381C6.6454 14.2381 5.71487 14.0594 4.88867 13.7018C4.06246 13.3448 3.36493 12.8525 2.79757 12.2248C2.23021 11.5981 1.794 10.8613 1.49194 10.0149C1.18888 9.1685 1.03735 8.2564 1.03735 7.27813C1.03735 6.27467 1.18888 5.34332 1.49194 4.48455C1.794 3.62529 2.23021 2.87616 2.79757 2.23714C3.36493 1.59714 4.06246 1.09591 4.88867 0.731958C5.71487 0.368502 6.6454 0.186279 7.68027 0.186279C8.4245 0.186279 9.12799 0.29344 9.79025 0.506279C10.4525 0.719613 11.0452 1.02974 11.5688 1.43764C12.0925 1.84504 12.5247 2.34974 12.865 2.95171C13.2063 3.55319 13.4205 4.24356 13.5084 5.02085H10.6323C10.5817 4.68208 10.4684 4.37196 10.292 4.08949Z" fill="white"/>
<path d="M20.899 6.48799C20.5771 6.13737 20.0877 5.96108 19.4319 5.96108C19.0032 5.96108 18.6465 6.03367 18.3628 6.17737C18.0791 6.32157 17.8516 6.50034 17.6817 6.71317C17.5113 6.927 17.391 7.15268 17.322 7.3912C17.2524 7.62922 17.2112 7.84206 17.1993 8.03021H21.5707C21.4445 7.35268 21.2205 6.8391 20.899 6.48799ZM17.8615 11.6045C18.2644 11.9927 18.8452 12.1872 19.6023 12.1872C20.1449 12.1872 20.6114 12.0524 21.0029 11.7828C21.3939 11.5137 21.6333 11.2282 21.7218 10.927H24.0876C23.709 12.0934 23.1287 12.9275 22.3463 13.4292C21.5638 13.9305 20.6178 14.1813 19.5075 14.1813C18.7379 14.1813 18.0443 14.0593 17.4263 13.8149C16.8083 13.57 16.2841 13.2223 15.8554 12.7705C15.4266 12.3191 15.0947 11.7803 14.8617 11.1532C14.6282 10.5265 14.512 9.83614 14.512 9.08404C14.512 8.35713 14.6312 7.6791 14.8712 7.05194C15.1106 6.42478 15.4515 5.88305 15.8931 5.42527C16.3348 4.9675 16.8614 4.607 17.4735 4.34379C18.0851 4.08009 18.7632 3.94873 19.5075 3.94873C20.3401 3.94873 21.0655 4.10873 21.684 4.42774C22.302 4.74824 22.8103 5.17737 23.2072 5.71713C23.6047 6.25638 23.8919 6.87071 24.0687 7.56058C24.2451 8.24996 24.3077 8.97095 24.2575 9.72354H17.1993C17.237 10.5882 17.4576 11.2159 17.8615 11.6045Z" fill="white"/>
<path d="M28.0234 4.21194V6.01787H28.0611C28.1873 5.71713 28.3577 5.43762 28.5723 5.18034C28.7865 4.92355 29.0329 4.70429 29.3101 4.52206C29.5878 4.34083 29.8844 4.1991 30.1999 4.09885C30.5154 3.99861 30.8433 3.94873 31.1841 3.94873C31.3605 3.94873 31.5557 3.98034 31.7708 4.04256V6.52552C31.6437 6.50034 31.4931 6.47861 31.3158 6.45984C31.1399 6.44108 30.969 6.43169 30.8055 6.43169C30.3137 6.43169 29.8973 6.51367 29.5565 6.67614C29.2157 6.8391 28.941 7.06132 28.7333 7.34379C28.5246 7.62626 28.3766 7.95515 28.2882 8.33145C28.2002 8.70774 28.156 9.11515 28.156 9.55367V13.9369H25.4687V4.21194H28.0234Z" fill="white"/>
<path d="M38.9622 4.21194V5.99861H36.9934V10.8139C36.9934 11.2663 37.0699 11.5665 37.2214 11.7171C37.3729 11.8677 37.6755 11.9433 38.1286 11.9433C38.2801 11.9433 38.4257 11.9369 38.5643 11.924C38.7024 11.9122 38.8351 11.8934 38.9622 11.8677V13.9369C38.7352 13.9744 38.4818 13.9996 38.2041 14.0119C37.9279 14.0248 37.6561 14.0312 37.3913 14.0312C36.975 14.0312 36.58 14.0026 36.2079 13.9463C35.8358 13.89 35.5089 13.7808 35.2242 13.6174C34.9405 13.4539 34.7165 13.2223 34.552 12.9206C34.3881 12.6198 34.3071 12.2248 34.3071 11.7364V5.99861H32.679V4.21194H34.3071V1.29639H36.9934V4.21194H38.9622Z" fill="white"/>
<path d="M40.324 13.9367H43.0113V4.21178H40.324V13.9367ZM40.324 2.70709H43.0113V0.506104H40.324V2.70709Z" fill="white"/>
<path d="M44.1087 5.99845V4.21178H45.7174V3.45919C45.7174 2.594 45.9882 1.88586 46.5307 1.33376C47.0732 0.782153 47.894 0.506104 48.9915 0.506104C49.2304 0.506104 49.4714 0.515486 49.7113 0.534252C49.9493 0.553017 50.1833 0.569313 50.4104 0.581165V2.57524C50.0949 2.53721 49.7665 2.51845 49.4262 2.51845C49.061 2.51845 48.7987 2.60339 48.6412 2.77277C48.4837 2.94166 48.4052 3.22759 48.4052 3.62857V4.21178H50.2588V5.99845H48.4052V13.9367H45.7174V5.99845H44.1087Z" fill="white"/>
<path d="M51.8864 13.9367H54.5747V4.21178H51.8864V13.9367ZM51.8864 2.70709H54.5747V0.506104H51.8864V2.70709Z" fill="white"/>
<path d="M61.8495 6.48799C61.5286 6.13737 61.0382 5.96108 60.3834 5.96108C59.9542 5.96108 59.5985 6.03367 59.3143 6.17737C59.0296 6.32157 58.8031 6.50034 58.6331 6.71317C58.4627 6.927 58.343 7.15268 58.273 7.3912C58.2039 7.62922 58.1632 7.84206 58.1507 8.03021H62.5217C62.3965 7.35268 62.1725 6.8391 61.8495 6.48799ZM58.8125 11.6045C59.2164 11.9927 59.7972 12.1872 60.5533 12.1872C61.0964 12.1872 61.5629 12.0524 61.9539 11.7828C62.3453 11.5137 62.5853 11.2282 62.6727 10.927H65.0381C64.6605 12.0934 64.0792 12.9275 63.2982 13.4292C62.5143 13.9305 61.5693 14.1813 60.4589 14.1813C59.6889 14.1813 58.9953 14.0593 58.3773 13.8149C57.7592 13.57 57.2351 13.2223 56.8069 12.7705C56.3771 12.3191 56.0462 11.7803 55.8132 11.1532C55.5802 10.5265 55.463 9.83614 55.463 9.08404C55.463 8.35713 55.5832 7.6791 55.8227 7.05194C56.0626 6.42478 56.4019 5.88305 56.8446 5.42527C57.2863 4.9675 57.8124 4.607 58.4245 4.34379C59.0366 4.08009 59.7142 3.94873 60.4589 3.94873C61.2916 3.94873 62.0174 4.10873 62.6355 4.42774C63.2535 4.74824 63.7613 5.17737 64.1592 5.71713C64.5562 6.25638 64.8433 6.87071 65.0192 7.56058C65.1966 8.24996 65.2587 8.97095 65.209 9.72354H58.1507C58.1885 10.5882 58.4086 11.2159 58.8125 11.6045Z" fill="white"/>
<path d="M73.2514 7.88882C73.1764 7.51944 73.0463 7.19302 72.8639 6.91104C72.6816 6.62857 72.4446 6.40042 72.154 6.22413C71.8638 6.04882 71.4987 5.96092 71.057 5.96092C70.6158 5.96092 70.2432 6.04882 69.9402 6.22413C69.6376 6.40042 69.3942 6.63203 69.2113 6.92042C69.028 7.20931 68.8964 7.5382 68.8149 7.90808C68.7319 8.27796 68.6922 8.66363 68.6922 9.06512C68.6922 9.44042 68.7354 9.81721 68.8228 10.193C68.9118 10.5698 69.0543 10.9056 69.2496 11.1999C69.4453 11.4947 69.6908 11.7328 69.9879 11.9145C70.284 12.0967 70.6412 12.1871 71.057 12.1871C71.4987 12.1871 71.8673 12.1002 72.1644 11.9239C72.4605 11.7486 72.697 11.5135 72.8739 11.2182C73.0492 10.9239 73.1764 10.5881 73.2514 10.2123C73.328 9.83598 73.3662 9.44734 73.3662 9.04635C73.3662 8.64536 73.328 8.25919 73.2514 7.88882ZM73.3662 12.6952C73.0492 13.2222 72.6364 13.6014 72.1257 13.833C71.6149 14.0651 71.0381 14.1812 70.3943 14.1812C69.6619 14.1812 69.0196 14.0404 68.4646 13.758C67.9087 13.476 67.4516 13.0938 67.0919 12.6108C66.7317 12.1283 66.4605 11.5738 66.2781 10.9461C66.0953 10.3194 66.0044 9.66709 66.0044 8.98956C66.0044 8.33771 66.0953 7.70759 66.2781 7.09919C66.4605 6.4908 66.7317 5.95499 67.0919 5.4903C67.4516 5.02709 67.9027 4.65376 68.4453 4.37178C68.9873 4.08931 69.6182 3.94857 70.3376 3.94857C70.9184 3.94857 71.4699 4.07055 71.9925 4.31499C72.5171 4.55993 72.93 4.92042 73.2331 5.39697H73.2703V0.506104H75.9581V13.9367H73.4035V12.6952H73.3662Z" fill="white"/>
<path d="M28.1436 73.8929H42.5438C47.5015 73.8929 50.6468 70.8869 50.6468 66.1976C50.6468 60.6074 46.1114 59.045 41.2704 59.045H28.1436V73.8929ZM28.1436 54.2346H39.6409C46.1715 54.2346 48.8335 51.8909 48.8335 47.3822C48.8335 41.4292 44.6006 40.5897 39.6409 40.5897H28.1436V54.2346ZM22.4014 35.7803H38.066C41.8771 35.7803 46.8974 35.7803 49.4972 37.3437C52.3395 39.0262 54.5761 42.0924 54.5761 46.3013C54.5761 50.8687 52.1586 54.2958 48.1667 55.9181V56.0385C53.4911 57.1205 56.3915 61.0889 56.3915 66.3798C56.3915 72.6894 51.8546 78.7023 43.2681 78.7023H22.4014V35.7803Z" fill="white"/>
<path d="M38.2339 19.634C17.3394 19.634 0.399445 36.4716 0.399445 57.241C0.399445 78.0098 17.3394 94.8474 38.2339 94.8474C59.1315 94.8474 76.0709 78.0098 76.0709 57.241C76.0709 36.4716 59.1315 19.634 38.2339 19.634ZM71.0814 57.2592C71.0814 75.2908 56.3771 89.9081 38.2339 89.9081C20.0937 89.9081 5.38896 75.2908 5.38896 57.2592C5.38896 39.2296 20.0937 24.6133 38.2339 24.6133C56.3771 24.6133 71.0814 39.2296 71.0814 57.2592Z" fill="white"/>
<path d="M7.38417 102.971C7.24804 102.026 6.33738 101.307 5.29258 101.307C3.40468 101.307 2.69374 102.906 2.69374 104.57C2.69374 106.153 3.40468 107.751 5.29258 107.751C6.57734 107.751 7.30468 106.873 7.46217 105.621H9.5016C9.28548 107.992 7.63854 109.509 5.29258 109.509C2.33355 109.509 0.592209 107.312 0.592209 104.57C0.592209 101.746 2.33355 99.5491 5.29258 99.5491C7.39659 99.5491 9.16327 100.775 9.41913 102.971H7.38417Z" fill="white"/>
<path d="M13.8915 108.043C15.1906 108.043 15.5786 106.938 15.5786 105.847C15.5786 104.743 15.1906 103.638 13.8915 103.638C12.6062 103.638 12.2152 104.743 12.2152 105.847C12.2152 106.938 12.6062 108.043 13.8915 108.043ZM13.8915 102.214C16.0755 102.214 17.4819 103.649 17.4819 105.847C17.4819 108.031 16.0755 109.469 13.8915 109.469C11.7214 109.469 10.3159 108.031 10.3159 105.847C10.3159 103.649 11.7214 102.214 13.8915 102.214Z" fill="white"/>
<path d="M18.5799 102.4H20.3863V103.677H20.4136C20.7609 102.812 21.6994 102.214 22.6255 102.214C22.7591 102.214 22.9186 102.239 23.0413 102.279V104.036C22.8639 103.997 22.5847 103.971 22.3577 103.971C20.9626 103.971 20.4792 104.97 20.4792 106.18V109.283H18.5799V102.4Z" fill="white"/>
<path d="M29.1993 105.862C29.1993 104.767 28.7572 103.638 27.539 103.638C26.293 103.638 25.892 104.743 25.892 105.862C25.892 106.979 26.3203 108.043 27.5529 108.043C28.7994 108.043 29.1993 106.979 29.1993 105.862ZM24.0563 102.4H25.8662V103.277H25.892C26.3471 102.545 27.0968 102.214 27.9533 102.214C30.1254 102.214 31.1011 103.957 31.1011 105.913C31.1011 107.751 30.0851 109.469 28.0606 109.469C27.2309 109.469 26.4415 109.109 25.9859 108.43H25.9576V111.706H24.0563V102.4Z" fill="white"/>
<path d="M35.6003 108.043C36.9 108.043 37.2895 106.938 37.2895 105.847C37.2895 104.743 36.9 103.638 35.6003 103.638C34.316 103.638 33.9265 104.743 33.9265 105.847C33.9265 106.938 34.316 108.043 35.6003 108.043ZM35.6003 102.214C37.7848 102.214 39.1938 103.649 39.1938 105.847C39.1938 108.031 37.7848 109.469 35.6003 109.469C33.4312 109.469 32.0257 108.031 32.0257 105.847C32.0257 103.649 33.4312 102.214 35.6003 102.214Z" fill="white"/>
<path d="M40.4254 102.4H42.2338V103.677H42.2621C42.6089 102.812 43.5464 102.214 44.4709 102.214C44.6041 102.214 44.7655 102.239 44.8863 102.279V104.036C44.7124 103.997 44.4302 103.971 44.2032 103.971C42.8101 103.971 42.3272 104.97 42.3272 106.18V109.283H40.4254V102.4Z" fill="white"/>
<path d="M49.9493 105.913C49.6254 106.195 48.9572 106.205 48.3669 106.313C47.7777 106.431 47.2422 106.634 47.2422 107.325C47.2422 108.031 47.7911 108.203 48.4087 108.203C49.8932 108.203 49.9493 107.033 49.9493 106.619V105.913ZM45.553 104.517C45.6618 102.745 47.2546 102.214 48.8091 102.214C50.1878 102.214 51.8501 102.519 51.8501 104.168V107.751C51.8501 108.378 51.9157 109.003 52.0931 109.283H50.1619C50.0969 109.068 50.0407 108.843 50.0258 108.616C49.4252 109.243 48.5418 109.469 47.6977 109.469C46.3842 109.469 45.3409 108.817 45.3409 107.404C45.3409 105.847 46.5213 105.475 47.6977 105.315C48.8638 105.141 49.9493 105.182 49.9493 104.408C49.9493 103.598 49.3834 103.478 48.7162 103.478C47.9924 103.478 47.5244 103.77 47.4558 104.517H45.553Z" fill="white"/>
<path d="M55.7332 102.399H57.1268V103.664H55.7332V107.07C55.7332 107.712 55.8947 107.871 56.5361 107.871C56.7378 107.871 56.9256 107.857 57.1268 107.819V109.296C56.8034 109.35 56.388 109.363 56.0129 109.363C54.8509 109.363 53.8324 109.095 53.8324 107.724V103.664H52.6788V102.399H53.8324V100.334H55.7332V102.399Z" fill="white"/>
<path d="M58.0906 109.283H59.9924V102.4H58.0906V109.283ZM58.0906 101.333H59.9924V99.7749H58.0906V101.333Z" fill="white"/>
<path d="M64.584 108.043C65.8862 108.043 66.2732 106.938 66.2732 105.847C66.2732 104.743 65.8862 103.638 64.584 103.638C63.2992 103.638 62.9102 104.743 62.9102 105.847C62.9102 106.938 63.2992 108.043 64.584 108.043ZM64.584 102.214C66.7695 102.214 68.178 103.649 68.178 105.847C68.178 108.031 66.7695 109.469 64.584 109.469C62.4164 109.469 61.0114 108.031 61.0114 105.847C61.0114 103.649 62.4164 102.214 64.584 102.214Z" fill="white"/>
<path d="M69.4066 102.4H71.2155V103.359H71.2552C71.7376 102.585 72.5678 102.214 73.3727 102.214C75.3947 102.214 75.9029 103.345 75.9029 105.049V109.283H74.0011V105.394C74.0011 104.263 73.6653 103.702 72.7834 103.702C71.7501 103.702 71.3084 104.276 71.3084 105.675V109.283H69.4066V102.4Z" fill="white"/>
<path d="M0.540543 119.935H75.966V115.138H0.540543V119.935Z" fill="white"/>
<path d="M77.1018 99.9224C77.0541 99.8967 76.9761 99.8824 76.8693 99.8824H76.7063V100.273H76.8792C76.9607 100.273 77.0213 100.267 77.0615 100.251C77.1365 100.22 77.1743 100.165 77.1743 100.08C77.1743 100.002 77.149 99.95 77.1018 99.9224ZM76.8951 99.752C77.0297 99.752 77.1281 99.7663 77.1917 99.7915C77.304 99.8374 77.3596 99.9283 77.3596 100.065C77.3596 100.162 77.3248 100.233 77.2538 100.278C77.2165 100.303 77.1639 100.32 77.0968 100.331C77.1813 100.344 77.2443 100.379 77.2836 100.436C77.3218 100.494 77.3422 100.549 77.3422 100.604V100.683C77.3422 100.709 77.3427 100.735 77.3457 100.763C77.3472 100.792 77.3497 100.811 77.3551 100.819L77.3616 100.832H77.1813C77.1808 100.829 77.1808 100.826 77.1798 100.823C77.1788 100.819 77.1778 100.814 77.1768 100.81L77.1723 100.775V100.69C77.1723 100.565 77.1385 100.482 77.0705 100.442C77.0297 100.42 76.9587 100.408 76.8563 100.408H76.7063V100.832H76.5145V99.752H76.8951ZM76.3123 99.6977C76.1469 99.8626 76.0644 100.062 76.0644 100.297C76.0644 100.532 76.1464 100.735 76.3103 100.9C76.4763 101.066 76.6775 101.15 76.914 101.15C77.15 101.15 77.3517 101.066 77.5156 100.9C77.6815 100.735 77.765 100.532 77.765 100.297C77.765 100.062 77.6815 99.8626 77.5156 99.6977C77.3497 99.5317 77.149 99.4483 76.914 99.4483C76.678 99.4483 76.4792 99.5317 76.3123 99.6977ZM77.6155 100.994C77.4217 101.187 77.1877 101.283 76.914 101.283C76.6397 101.283 76.4062 101.187 76.2134 100.994C76.0222 100.802 75.9258 100.568 75.9258 100.295C75.9258 100.025 76.0232 99.793 76.2169 99.6014C76.4092 99.4093 76.6407 99.3145 76.914 99.3145C77.1877 99.3145 77.4217 99.4093 77.6155 99.6014C77.8087 99.792 77.9046 100.024 77.9046 100.295C77.9046 100.568 77.8087 100.801 77.6155 100.994Z" fill="white"/>
</g>
<defs>
<clipPath id="clip0_2_135">
<rect width="78" height="120" fill="white"/>
</clipPath>
</defs>
</svg>
