<svg width="120" height="38" viewBox="0 0 120 38" fill="none" xmlns="http://www.w3.org/2000/svg">
<g clip-path="url(#clip0_2_439)">
<path d="M67.9764 10.3997C68.0455 10.3997 68.1319 10.3997 68.2011 10.3825C69.3418 10.262 70.3615 9.33223 70.5344 8.17863C70.7072 7.04225 69.9813 6.09526 68.8751 5.97474C68.806 5.97474 68.7196 5.95752 68.6505 5.95752C68.5813 5.95752 68.4949 5.95752 68.4258 5.97474C67.285 6.09526 66.2653 7.02503 66.0925 8.17863C66.006 8.78126 66.1616 9.31502 66.49 9.72825C66.8357 10.1415 67.3542 10.3997 67.9764 10.3997Z" fill="black"/>
<path d="M120 28.8918C120 25.8615 118.514 23.0894 117.2 20.6444C116.077 18.5611 115.074 16.6671 115.333 15.2552C115.524 14.2394 116.249 13.6539 117.373 13.5851C117.407 13.5851 117.442 13.5679 117.477 13.5679C117.528 13.5506 117.58 13.5162 117.632 13.4818C117.684 13.4473 117.719 13.3957 117.736 13.344C117.736 13.3268 117.753 13.3268 117.753 13.3096L118.306 11.8805C118.358 11.7255 118.375 11.6222 118.324 11.5189C118.289 11.4501 118.237 11.3812 118.151 11.3123C118.047 11.2262 117.874 11.1573 117.649 11.0885C117.338 10.9852 116.941 10.9163 116.578 10.9163C114.953 10.9163 112.966 11.4501 111.237 15.7373C111.168 15.9095 107.832 24.5185 107.729 24.794C107.314 25.8098 106.432 27.0323 104.566 27.0323C103.753 27.0323 103.097 26.7224 102.734 26.2058C102.665 26.1025 102.613 25.9992 102.561 25.8959C102.423 25.5515 102.371 25.1383 102.457 24.6906C102.492 24.5357 102.526 24.3635 102.578 24.1913C102.665 23.8986 102.786 23.5715 102.924 23.2443C104.203 19.9902 108.748 8.40247 110.148 4.83836C110.321 4.39069 110.079 4.02912 109.595 4.02912H107.988C107.815 4.02912 107.625 4.08077 107.469 4.16686C107.176 4.3046 106.934 4.56287 106.813 4.83836C106.19 6.40519 105.309 8.67796 104.376 11.0713C103.65 12.9136 102.907 14.8248 102.215 16.5638C102.008 16.2194 101.766 15.8923 101.507 15.5824C101.23 15.2724 100.936 14.9797 100.625 14.7215C99.277 13.6195 97.5659 13.0169 95.682 13.0169C93.366 13.0169 91.1364 13.9467 89.3908 15.4618C89.3217 15.5135 89.2698 15.5824 89.2007 15.634C89.1488 15.6684 89.1142 15.7201 89.0624 15.7545C87.9217 16.8221 87.0229 18.1478 86.4699 19.6114C86.4699 19.6286 86.4526 19.6458 86.4526 19.6802C86.3834 19.8696 86.3316 20.059 86.2624 20.2656C86.1587 20.6272 86.0723 20.9888 86.0205 21.3676C85.9686 21.7119 85.9341 22.0563 85.9168 22.4007C85.8822 23.3993 86.0378 24.3807 86.3489 25.2761C86.1933 25.5343 85.9859 25.7754 85.7612 25.9992C85.1217 26.6018 84.2748 26.9979 83.3934 27.0667C83.307 27.0667 83.2378 27.0667 83.1514 27.0667C82.8057 27.0667 82.4773 26.9979 82.1835 26.8945C81.8206 26.7568 81.5095 26.533 81.3021 26.2403C80.9045 25.6721 80.9045 24.8456 81.2675 23.8986C81.3539 23.6576 81.907 22.194 82.4082 20.8855C82.7884 19.8696 83.1341 18.9226 83.2033 18.7332C83.2378 18.6299 83.3069 18.475 83.3588 18.2856C83.4452 17.924 83.4971 17.4247 83.2551 16.9081C83.1514 16.7015 83.0304 16.5293 82.8921 16.3744C82.6156 16.0817 82.2527 15.9095 81.907 15.7718C81.7687 15.7201 81.6304 15.6684 81.4922 15.634C81.2502 15.5651 80.9909 15.4618 80.6971 15.3413C80.6798 15.3413 80.6799 15.3241 80.6626 15.3241C80.1786 15.1175 77.8453 14.0327 77.8453 11.9666C77.8453 11.9149 77.8453 11.8633 77.8453 11.8288C77.8453 11.8116 77.8453 11.7944 77.8453 11.7772C77.8453 11.76 77.8453 11.7255 77.8453 11.7083C77.8108 11.3984 77.7071 11.209 77.5688 11.1057C77.5515 11.1057 77.5515 11.0885 77.5342 11.0885C77.5342 11.0885 77.5342 11.0885 77.5169 11.0885C77.4997 11.0713 77.4824 11.0713 77.4651 11.054C77.4651 11.054 77.4651 11.054 77.4478 11.054C77.4478 11.054 77.4478 11.054 77.4305 11.054C77.4132 11.054 77.4132 11.0368 77.396 11.0368C77.3095 11.0024 77.2231 10.9852 77.1194 10.9852H75.5293C75.2009 10.9852 74.838 11.1573 74.596 11.4156C74.4923 11.5189 74.4059 11.6567 74.3541 11.7944C74.0084 12.6725 73.5936 13.7228 73.1615 14.842C71.6405 18.7332 69.8257 23.3993 69.3072 24.7251C69.29 24.7767 69.2727 24.8284 69.2554 24.88C68.8406 25.8959 67.9591 27.1184 66.0752 27.1184C65.2629 27.1184 64.5888 26.8085 64.2432 26.2919C64.0357 25.982 63.932 25.586 63.9493 25.1211C63.9666 24.7595 64.053 24.3635 64.2086 23.9503C64.537 23.0894 65.2456 21.2987 65.9888 19.4047C66.6974 17.5969 67.4406 15.6684 67.9591 14.3599C68.132 13.9122 67.89 13.5506 67.406 13.5506H65.7987H65.6431C65.5394 13.5506 65.4184 13.5679 65.2974 13.6023C65.2802 13.6023 65.2802 13.6023 65.2629 13.6023C64.8826 13.7056 64.5024 13.9639 64.2777 14.2394C63.4481 15.238 62.3765 16.0472 61.2012 16.6327C60.026 17.2181 58.7642 17.5969 57.5544 17.7346C57.3816 17.2869 57.1569 16.8393 56.8803 16.426C56.8631 16.4088 56.863 16.3916 56.8458 16.3744C56.6729 16.1161 56.5001 15.8751 56.2927 15.634C54.8582 13.9811 52.8014 13.0685 50.4681 13.0685C49.2237 13.0685 48.0139 13.344 46.8731 13.8261C47.4435 12.3626 48.0138 10.8819 48.5496 9.4872C49.2064 7.78263 49.8286 6.19858 50.3299 4.89001C50.4163 4.6834 50.399 4.51122 50.3299 4.35626C50.2434 4.18408 50.0533 4.08077 49.7941 4.08077H49.7768H48.1867H48.1694C47.9793 4.08077 47.7719 4.14964 47.5818 4.25295C47.3571 4.37347 47.167 4.54565 47.0633 4.75227C47.046 4.80392 47.0114 4.83836 46.9941 4.89001C44.9374 10.107 41.6535 18.5611 40.098 22.6073C39.6659 23.7092 39.3721 24.5013 39.2511 24.794C38.8363 25.8098 37.9548 27.0323 36.0882 27.0323C35.9153 27.0323 35.7598 27.0151 35.6215 26.9979C35.0339 26.8945 34.5326 26.6363 34.2561 26.2058C34.2043 26.1197 34.1524 26.0337 34.1006 25.9303C33.945 25.586 33.8932 25.1555 33.9796 24.6906C34.0141 24.4668 34.1351 24.1052 34.2734 23.7437C34.4635 23.2271 34.6536 22.7278 34.6536 22.7278C34.6536 22.7278 35.345 20.9716 36.3301 18.4233C36.4338 18.1478 36.5548 17.8551 36.6758 17.5452C36.6931 17.5108 36.7104 17.4763 36.7104 17.4419C38.2313 13.5506 40.2708 8.29917 41.7399 4.51122C42.3275 2.97882 42.8288 1.68747 43.1744 0.826577C43.3473 0.378911 43.1053 0.017334 42.6214 0.017334H41.014C40.5301 0.017334 40.0115 0.378911 39.8387 0.826577C39.6486 1.30868 37.9548 5.68204 36.0536 10.5719C33.5993 16.8737 30.8167 24.0364 30.5229 24.8112C30.4537 24.9661 30.3846 25.1211 30.2982 25.2761C30.0389 25.7754 29.6414 26.2575 29.0883 26.6018C28.6389 26.8773 28.0513 27.0495 27.3427 27.0667C26.6859 27.0667 26.1328 26.8773 25.7526 26.5158C25.6662 26.4297 25.5797 26.3436 25.4933 26.2403C25.2341 25.8443 25.1304 25.3449 25.2341 24.7595V24.7423C25.3205 24.243 25.9945 22.4868 25.9945 22.4523C26.4266 21.3504 26.9279 20.0418 27.4637 18.6472C29.2439 14.0844 31.4216 8.43691 32.8216 4.87279C32.8561 4.76949 32.8734 4.66618 32.8734 4.56287C32.8561 4.42513 32.8043 4.28738 32.7006 4.20129C32.5969 4.1152 32.4586 4.06355 32.2685 4.06355H30.6611C30.4883 4.06355 30.2982 4.1152 30.1253 4.20129C29.8834 4.32182 29.676 4.51122 29.555 4.73505C29.5377 4.76949 29.5031 4.82114 29.4858 4.85558C29.071 5.90587 28.6217 7.07669 28.1377 8.31638C27.6192 9.65938 27.0661 11.0885 26.4958 12.5176C24.2835 18.1995 22.0885 23.8986 21.7255 24.8112C21.6045 25.1039 21.449 25.3966 21.2588 25.6893C20.7403 26.4297 19.9107 27.0495 18.5453 27.0495C18.0441 27.0495 17.5947 26.929 17.2318 26.7224C17.0244 26.5846 16.8342 26.4297 16.7133 26.223C16.6268 26.0853 16.5577 25.9476 16.5059 25.7926C16.4022 25.4827 16.3849 25.1211 16.454 24.7251C16.5404 24.243 17.0244 22.9861 17.1108 22.7967C17.1108 22.7795 17.1281 22.7622 17.1281 22.7622L20.4292 14.291C20.6021 13.8433 20.3601 13.4818 19.8762 13.4818H18.2688C17.975 13.4818 17.6639 13.6195 17.4219 13.8261C17.4046 13.8261 17.4046 13.8433 17.4046 13.8433C17.2663 13.9639 17.1626 14.1188 17.1108 14.2738L16.7824 15.1347L16.2639 16.4777C16.1602 16.3227 16.0565 16.1678 15.9528 16.0128C15.8491 15.8578 15.7281 15.7201 15.6071 15.5824C15.0886 14.9797 14.4664 14.4632 13.7923 14.0672C12.6343 13.3785 11.2689 13.0169 9.79982 13.0169C6.18755 13.0169 2.7654 15.2897 1.08889 18.4922C0.62223 19.3875 0.293842 20.3517 0.13829 21.3504C-0.224666 23.692 0.38026 25.9131 1.83208 27.5833C2.28146 28.0998 2.78268 28.5475 3.35304 28.909C3.45674 28.9779 3.57773 29.0468 3.69871 29.1157C4.85671 29.7872 6.20483 30.1487 7.65665 30.1487C9.98994 30.1487 12.2541 29.1845 14.017 27.6521C14.0689 27.7554 14.138 27.8588 14.2071 27.9621C14.2417 28.0137 14.2936 28.0826 14.3281 28.1342C14.3281 28.1515 14.3454 28.1515 14.3454 28.1687C14.38 28.2203 14.4318 28.272 14.4664 28.3236C14.501 28.3581 14.5355 28.3925 14.5528 28.4269C14.5701 28.4614 14.6047 28.4786 14.6392 28.513C14.6911 28.5647 14.7429 28.6163 14.7775 28.668C14.7948 28.6852 14.8121 28.7024 14.8293 28.7197C14.8985 28.7713 14.9503 28.8402 15.0195 28.8918C15.0195 28.8918 15.0195 28.8918 15.0367 28.909C15.6244 29.4084 16.3676 29.8044 17.2318 30.011C17.249 30.011 17.2663 30.0282 17.2836 30.0282C17.37 30.0454 17.4565 30.0626 17.5429 30.0799C17.5774 30.0799 17.612 30.0971 17.6639 30.0971C17.733 30.1143 17.8021 30.1143 17.8885 30.1315C17.9577 30.1315 18.0095 30.1487 18.0787 30.1487C18.1305 30.1487 18.1824 30.166 18.2515 30.166C18.3725 30.166 18.4935 30.1832 18.6317 30.1832C19.5305 30.1832 20.3774 30.011 21.1551 29.6839C21.449 29.5633 21.7255 29.4256 21.9848 29.2534C22.0712 29.2017 22.1576 29.1501 22.244 29.0812C22.5897 28.8402 22.9181 28.5819 23.2119 28.272C23.3156 28.4097 23.4366 28.5303 23.5576 28.6508C24.3526 29.46 25.4242 29.9593 26.6513 30.1143C26.6859 30.1143 26.7377 30.1315 26.7723 30.1315C26.8069 30.1315 26.8414 30.1315 26.876 30.1315C26.9451 30.1315 27.0143 30.1487 27.0834 30.1487C27.118 30.1487 27.1525 30.1487 27.1698 30.1487C27.239 30.1487 27.3254 30.1487 27.3945 30.1487C29.192 30.1487 30.7821 29.4772 31.9574 28.272C32.4068 28.823 32.9771 29.2706 33.6339 29.5978C34.3771 29.9593 35.224 30.1487 36.1227 30.1487C36.5894 30.1487 37.0388 30.0971 37.4709 30.011C39.3548 29.6322 40.9103 28.4442 41.8609 26.6535C41.9127 26.7396 41.9646 26.8085 42.0164 26.8945C42.0856 26.9979 42.1547 27.1012 42.2238 27.2045C42.3275 27.3422 42.4313 27.4627 42.535 27.6005C43.9695 29.2534 46.0262 30.166 48.3595 30.166C51.5397 30.166 54.5816 28.3925 56.3964 25.8098C57.226 24.6218 57.7964 23.2788 58.0211 21.8497C58.0729 21.4881 58.1075 21.1265 58.1248 20.765C58.4359 20.7305 58.747 20.6789 59.0408 20.61C60.3716 20.3517 61.616 19.9213 62.7222 19.3359C62.6876 19.422 62.6531 19.5253 62.6185 19.6114C62.1 20.9716 61.6333 22.1424 61.3914 22.7795C60.6309 24.6907 60.7519 26.5502 61.737 27.9965C62.1 28.5303 62.5666 28.9779 63.1024 29.3223C63.9666 29.8733 65.0036 30.1832 66.1443 30.1832C68.8924 30.1832 71.1566 28.6163 72.2282 25.9648C72.3664 25.6204 72.643 24.8973 73.0059 23.9503C73.7664 22.0047 74.9071 19.0776 75.9441 16.426C76.0306 16.185 76.1343 15.9439 76.2207 15.7201C77.1194 16.8393 78.3293 17.6829 79.5046 18.1823C79.5737 18.2167 79.6255 18.2339 79.6947 18.2684C79.833 18.32 79.9712 18.3717 80.0922 18.4233C79.5046 20.0074 78.5712 22.5212 78.4503 22.7967C77.9836 23.9847 77.8453 25.1383 78.0527 26.1886C78.1737 26.8429 78.433 27.4627 78.7959 28.0137C79.0379 28.3581 79.3144 28.668 79.6256 28.9435C80.4897 29.6839 81.6132 30.1315 82.8576 30.2004C82.9786 30.2004 83.0823 30.2176 83.2033 30.2176C83.3934 30.2176 83.5835 30.2004 83.7736 30.1832C83.8082 30.1832 83.86 30.1832 83.8946 30.166C83.9119 30.166 83.9292 30.166 83.9464 30.166C84.7415 30.0799 85.502 29.8388 86.2106 29.4945C86.9365 29.1329 87.5933 28.6508 88.1464 28.0826C89.2352 29.1501 90.6352 29.8388 92.208 30.0971C92.6401 30.166 93.0895 30.2004 93.5561 30.2004C94.1438 30.2004 94.7314 30.1315 95.3018 30.0282C96.8746 29.7183 98.361 28.9779 99.6054 27.9621C99.7264 27.876 99.8301 27.7727 99.9338 27.6694C100.003 27.7899 100.072 27.9104 100.141 28.0137C100.746 28.8918 101.61 29.5289 102.63 29.8905C102.682 29.9077 102.734 29.9249 102.768 29.9421C102.82 29.9593 102.889 29.9766 102.941 29.9938C103.01 30.011 103.062 30.0282 103.131 30.0454C103.183 30.0626 103.235 30.0626 103.287 30.0799C103.356 30.0971 103.408 30.1143 103.477 30.1143C103.529 30.1315 103.581 30.1315 103.632 30.1487C103.702 30.166 103.753 30.166 103.823 30.166C103.892 30.166 103.961 30.1832 104.03 30.1832C104.082 30.1832 104.134 30.2004 104.186 30.2004C104.307 30.2004 104.428 30.2176 104.566 30.2176C107.314 30.2176 109.578 28.6508 110.65 25.9992C110.701 25.8443 111.704 23.3477 112.516 21.2815C112.758 20.6617 112.983 20.0762 113.156 19.6114C113.242 19.8008 113.346 20.0074 113.432 20.1968C113.761 20.851 114.106 21.5225 114.469 22.2113C114.763 22.7622 115.074 23.3304 115.351 23.8986C116.198 25.586 116.906 27.3078 116.906 28.9951C116.906 33.9711 113.519 34.8492 112.482 35.0042C111.79 35.1075 111.272 35.6413 111.168 36.2955C111.151 36.4505 111.134 36.6055 111.168 36.7604C111.168 36.8121 111.185 36.8637 111.203 36.8982C111.376 37.5869 111.998 38.0862 112.706 38.0862C112.741 38.0862 112.775 38.0862 112.827 38.0862C112.862 38.0862 112.896 38.0862 112.948 38.0862C113.761 37.9657 114.625 37.7074 115.437 37.3114C117.84 35.9684 120 33.3513 120 28.8918ZM100.089 21.3332C99.7955 23.3649 98.4992 25.1555 96.8054 26.1714C96.7882 26.1886 96.7536 26.2058 96.7363 26.2058C96.7363 26.2058 96.719 26.2058 96.719 26.223C95.8203 26.7396 94.8178 27.0323 93.7808 27.0323C93.2969 27.0323 92.8302 26.9634 92.3981 26.8257C91.6376 26.5846 90.9636 26.1542 90.4624 25.5515C89.9611 24.9489 89.65 24.2085 89.5291 23.3821V23.3649C89.4599 22.8655 89.4599 22.349 89.5463 21.8153C89.6673 21.0232 89.9266 20.2656 90.3241 19.5769C90.8426 18.6472 91.5685 17.8551 92.4154 17.2525C93.4351 16.5466 94.6277 16.1161 95.8548 16.1161C96.6845 16.1161 97.4449 16.3055 98.0844 16.6843C98.4992 16.9254 98.8622 17.2353 99.1733 17.5969C99.3289 17.7863 99.4671 17.9757 99.5708 18.1823C99.9683 18.871 100.158 19.6802 100.158 20.5411C100.158 20.7994 100.141 21.0577 100.089 21.3332ZM46.9423 26.8773C46.0954 26.6535 45.3695 26.2058 44.8337 25.5343C44.0213 24.5529 43.693 23.2271 43.9004 21.798V21.7808C43.9522 21.4192 44.0386 21.1093 44.125 20.851C44.246 20.5411 44.367 20.214 44.5053 19.8868C44.5226 19.8352 44.5571 19.8008 44.5744 19.7491C44.6263 19.663 44.6608 19.5769 44.7127 19.4908C44.73 19.4564 44.7472 19.4392 44.7645 19.4047C45.1448 18.7677 45.6114 18.1995 46.1472 17.7174C47.2879 16.7187 48.7225 16.0989 50.2089 16.0989C50.8829 16.0989 51.5224 16.2366 52.0755 16.4777C52.6459 16.736 53.1298 17.0975 53.5273 17.5796C54.3396 18.5611 54.668 19.8868 54.4606 21.3332C53.994 24.4668 51.1595 27.0323 48.1348 27.0323C47.72 27.0323 47.3225 26.9806 46.9423 26.8773ZM7.82949 27.0323C6.46409 27.0323 5.2888 26.4985 4.49376 25.5515C4.40734 25.4482 4.3382 25.3449 4.26907 25.2416C3.61229 24.2946 3.37032 23.0894 3.56044 21.798C4.0271 18.6644 6.87889 16.0989 9.9208 16.0989C11.2862 16.0989 12.4615 16.6327 13.2565 17.5796C14.0689 18.5611 14.4145 19.8868 14.1899 21.3332C14.1553 21.5742 14.1034 21.8153 14.0343 22.0563C13.2738 24.8456 10.6294 27.0323 7.82949 27.0323Z" fill="black"/>
</g>
<defs>
<clipPath id="clip0_2_439">
<rect width="120" height="38" fill="white"/>
</clipPath>
</defs>
</svg>
