<svg width="20" height="25" viewBox="0 0 20 25" fill="none" xmlns="http://www.w3.org/2000/svg">
<path d="M9.60506 12.0446C6.46073 12.0446 3.91174 9.49561 3.91174 6.35128C3.91174 3.20695 6.46073 0.657959 9.60506 0.657959C12.7494 0.657959 15.2984 3.20695 15.2984 6.35128C15.2984 7.86124 14.6986 9.30936 13.6308 10.3771C12.5631 11.4448 11.115 12.0446 9.60506 12.0446ZM9.60506 1.92314C7.15947 1.92314 5.17693 3.90569 5.17693 6.35128C5.17693 8.79687 7.15947 10.7794 9.60506 10.7794C12.0507 10.7794 14.0332 8.79687 14.0332 6.35128C14.0416 5.17139 13.5788 4.03694 12.7475 3.19965C11.9161 2.36236 10.785 1.89151 9.60506 1.89151V1.92314Z" fill="#212A2F"/>
<path d="M17.367 24.3738H1.84319C1.33028 24.3783 0.83907 24.1672 0.489445 23.7918C0.196114 23.4756 0.0472063 23.0518 0.078261 22.6215C0.59066 17.0294 4.68352 12.8101 9.60508 12.8101C14.5266 12.8101 18.6195 16.9978 19.1319 22.6215C19.172 23.0624 19.0225 23.4996 18.7207 23.8235C18.3656 24.1871 17.8751 24.3865 17.367 24.3738ZM9.60508 14.0436C5.34142 14.0436 1.78626 17.7696 1.33712 22.7038C1.33162 22.7909 1.36389 22.8762 1.42568 22.9378C1.53496 23.0505 1.6863 23.1124 1.84319 23.1086H17.367C17.5239 23.1124 17.6752 23.0505 17.7845 22.9378C17.8463 22.8762 17.8785 22.7909 17.873 22.7038C17.4239 17.7696 13.8687 14.0436 9.60508 14.0436Z" fill="#212A2F"/>
</svg>
