<svg width="25" height="25" viewBox="0 0 25 25" fill="none" xmlns="http://www.w3.org/2000/svg">
<path d="M12.5395 24.1777C5.94112 24.1777 0.592102 18.8367 0.592102 12.2483C0.592102 5.65984 5.94112 0.318848 12.5395 0.318848C19.1378 0.318848 24.4868 5.65984 24.4868 12.2483C24.476 18.8322 19.1333 24.1669 12.5395 24.1777ZM12.5395 1.67864C6.69325 1.67864 1.95394 6.41083 1.95394 12.2483C1.95394 18.0857 6.69325 22.8179 12.5395 22.8179C18.3857 22.8179 23.125 18.0857 23.125 12.2483C23.1177 6.41383 18.3827 1.68588 12.5395 1.67864Z" fill="#212A2F"/>
<path fill-rule="evenodd" clip-rule="evenodd" d="M12.6776 16.8926C13.0986 16.8899 13.4797 17.1411 13.6426 17.5287C13.8056 17.9164 13.7183 18.3639 13.4215 18.6621C13.1248 18.9603 12.6772 19.0503 12.2879 18.89C11.8987 18.7298 11.6447 18.3509 11.6447 17.9305C11.6483 17.3613 12.1076 16.8997 12.6776 16.8926Z" fill="#212A2F"/>
<path fill-rule="evenodd" clip-rule="evenodd" d="M13.3421 15.5065V14.8102C13.336 14.5265 13.3806 14.244 13.4737 13.976C13.559 13.7473 13.674 13.5309 13.8158 13.3322C13.9641 13.1203 14.1315 12.9225 14.3158 12.741C14.5 12.5505 14.6908 12.3731 14.8816 12.1892C15.0724 12.0052 15.2631 11.8016 15.4474 11.598C15.6347 11.3971 15.8001 11.1769 15.9408 10.941C16.2832 10.3941 16.4592 9.75971 16.4474 9.11484C16.4571 8.59359 16.3632 8.07558 16.171 7.59082C15.9965 7.16674 15.7316 6.78568 15.3947 6.47408C15.0474 6.16124 14.64 5.92211 14.1974 5.77119C13.7034 5.60609 13.1854 5.52396 12.6645 5.52813C12.0871 5.52132 11.5143 5.6308 10.9802 5.85002C10.4901 6.05565 10.0519 6.36754 9.69736 6.76312C9.34302 7.16322 9.07237 7.63001 8.9013 8.13605C8.70831 8.68189 8.61906 9.2589 8.63814 9.83744C8.63814 10.2583 8.97982 10.5995 9.4013 10.5995C9.82278 10.5995 10.1645 10.2583 10.1645 9.83744C10.1598 9.44511 10.2085 9.05397 10.3092 8.67472C10.3942 8.33574 10.5488 8.01809 10.7631 7.74191C10.9731 7.46863 11.2403 7.24443 11.546 7.085C11.8943 6.9249 12.2746 6.84626 12.6579 6.85508C13.2224 6.82536 13.7751 7.02431 14.1908 7.40688C14.597 7.82035 14.8319 8.37167 14.8487 8.95062C14.877 9.33417 14.8232 9.71935 14.6908 10.0805C14.5592 10.3893 14.3793 10.6754 14.1579 10.9279C13.9341 11.1875 13.6946 11.4332 13.4408 11.6636C13.1804 11.903 12.9344 12.1574 12.7039 12.4257C12.4675 12.7125 12.2685 13.0281 12.1118 13.365C11.9416 13.7712 11.8501 14.2058 11.8421 14.646V15.5C11.8421 15.9208 12.1838 16.262 12.6052 16.262C13.0267 16.262 13.3684 15.9208 13.3684 15.5" fill="#212A2F"/>
</svg>
